<?xml version="1.0" encoding="utf-8"?>
<!-- Svg Vector Icons : http://www.onlinewebfonts.com/icon -->
<!DOCTYPE svg PUBLIC "-//W3C//DTD SVG 1.1//EN" "http://www.w3.org/Graphics/SVG/1.1/DTD/svg11.dtd">
<svg version="1.1" xmlns="http://www.w3.org/2000/svg" xmlns:xlink="http://www.w3.org/1999/xlink" x="0px" y="0px" viewBox="0 0 1000 1000" enable-background="new 0 0 1000 1000" xml:space="preserve">
<metadata> Svg Vector Icons : http://www.onlinewebfonts.com/icon </metadata>
<g><g transform="translate(0.000000,511.000000) scale(0.100000,-0.100000)"><path d="M2871.6,3804.3L747.7,2579.8V116.4v-2465.5l2115.7-1220.4C4026.1-4240.5,4987.2-4790,4997.5-4790c12.3,0,738.8,413.7,1615.6,919.9c876.7,508.3,1829.6,1057.8,2115.7,1222.5l518.6,298.4l2.1,105c8.2,973.5-2.1,4815.8-16.5,4828.2c-14.4,14.4-4097.5,2372.9-4196.3,2424.4C4999.6,5028.9,4725.8,4876.6,2871.6,3804.3z M6952.6,3501.8l1934.6-1117.5V116.4v-2267.9L6942.3-3273.2c-1450.9-837.6-1951-1119.6-1975.7-1105.2c-16.5,10.3-895.2,516.6-1951,1125.7L1097.5-2145.4l4.1,2263.8l6.2,2263.8l1934.6,1119.6c1064,613.3,1944.8,1117.5,1955.1,1117.5C5009.9,4619.3,5888.6,4117.2,6952.6,3501.8z"/></g></g>
</svg>